<?xml version="1.0" encoding="utf-8"?>
<!-- Generator: Adobe Illustrator 19.0.0, SVG Export Plug-In . SVG Version: 6.00 Build 0)  -->
<svg version="1.1" id="Layer_1" xmlns="http://www.w3.org/2000/svg" xmlns:xlink="http://www.w3.org/1999/xlink" x="0px" y="0px"
	 viewBox="0 0 212.6 280.6" style="enable-background:new 0 0 212.6 280.6;" xml:space="preserve">
<style type="text/css">
	.st0{fill:#F7E000;}
</style>
<path id="XMLID_23_" class="st0" d="M76.6,0C34.4,0,0,33.9,0,75.5v100.4c0,57.7,47.7,104.7,106.3,104.7c58.6,0,106.3-47,106.3-104.7
	V74.8h-34.4v101.1c0,38.8-32.3,70.3-71.9,70.3c-39.6,0-71.9-31.6-71.9-70.3V75.5c0-22.7,18.9-41.2,42.2-41.2
	c23.3,0,42.2,18.5,42.2,41.2v95.7c0,6.6-5.6,12-12.5,12c-6.9,0-12.5-5.4-12.5-12V74.8H59.4v98.4c0,25.6,21,46.4,46.9,46.4
	c25.9,0,46.9-20.8,46.9-46.4V73.6c0-0.6,0-1.2-0.1-1.9C151,31.5,117.4,0,76.6,0"/>
</svg>
