<svg id="Layer_1" data-name="Layer 1" xmlns="http://www.w3.org/2000/svg" viewBox="0 0 250 250.01"><defs><style>.cls-1{fill:#fbe100;}</style></defs><title>cloud_yellow</title><path class="cls-1" d="M180.36,152.73a37,37,0,0,1-26.33-11,37.08,37.08,0,0,1-68.46-.57A34.45,34.45,0,1,1,85,82.87a19,19,0,0,1,22.16-7.42,37.08,37.08,0,0,1,73.1,3.1h0.05a37.09,37.09,0,1,1,0,74.18M93,208.49a8.47,8.47,0,1,1,8.47-8.47A8.47,8.47,0,0,1,93,208.49M72.48,185.82A14.5,14.5,0,1,1,87,171.32a14.5,14.5,0,0,1-14.5,14.5M125,0A125,125,0,1,0,250,125,125,125,0,0,0,125,0"/></svg>