<svg id="Layer_1" data-name="Layer 1" xmlns="http://www.w3.org/2000/svg" viewBox="0 0 250 249.75"><title>hand</title><path d="M197.22,122.27l-65.7,65.63c-13.77,13.75-44.13,20-65.27-1.07-23.52-23.49-19.79-46.46-10.2-64.09,10.24-18.83,16.43-25,19-53.76,1.2-13.33,16-8,18.8,4,2.42,10.24,4.83,25.12-6.79,48.08l4.42,2.36A92.13,92.13,0,0,0,100.35,101l47.55-47.51c10.75-10.74,23.19,1.12,12.5,11.8l-35,35,3.71,3.7,35-35C174.8,58.28,186.9,70.37,176.21,81l-35,34.95,3.7,3.7,30.63-30.59c10.68-10.68,22.34,1,11.65,11.64l-30.63,30.59,3.71,3.7,24.86-24.84c10.69-10.68,22.77,1.39,12.08,12.07M125,0A124.87,124.87,0,1,0,250,124.87,124.93,124.93,0,0,0,125,0"/></svg>