<svg id="Layer_1" data-name="Layer 1" xmlns="http://www.w3.org/2000/svg" viewBox="0 0 250 249.75"><defs><style>.cls-1{fill:#00b4d5;}</style></defs><title>star_blue</title><path class="cls-1" d="M206.48,161.25l-26-4.27-3.68,26-22.44-13.83-11.78,23.54L125,173.07l-17.61,19.6L95.62,169.14,73.17,183,69.5,157l-26,4.27,9-24.44L29.33,124.87,52.5,112.94l-9-24.44,26,4.27,3.67-26L95.62,80.61l11.77-23.54L125,76.68l17.61-19.61,11.77,23.54,22.44-13.83,3.68,26,26-4.26-9,24.44,23.17,11.93L197.5,136.81ZM125,0A124.87,124.87,0,1,0,250,124.87,124.94,124.94,0,0,0,125,0"/></svg>