<?xml version="1.0" encoding="utf-8"?>
<!-- Generator: Adobe Illustrator 19.2.1, SVG Export Plug-In . SVG Version: 6.00 Build 0)  -->
<svg version="1.1" id="Layer_1" xmlns="http://www.w3.org/2000/svg" xmlns:xlink="http://www.w3.org/1999/xlink" x="0px" y="0px"
	 viewBox="0 0 250 112.9" style="enable-background:new 0 0 250 112.9;" xml:space="preserve">
<style type="text/css">
	.st0{clip-path:url(#SVGID_2_);}
	.st1{clip-path:url(#SVGID_2_);fill:#FFFFFF;}
	.st2{clip-path:url(#SVGID_2_);fill-rule:evenodd;clip-rule:evenodd;}
</style>
<g>
	<defs>
		<rect id="SVGID_1_" width="250" height="112.9"/>
	</defs>
	<clipPath id="SVGID_2_">
		<use xlink:href="#SVGID_1_"  style="overflow:visible;"/>
	</clipPath>
	<path class="st0" d="M199.7,4.9c0.6,1.5,1,3,1,4.7l0,17.8c1.6-0.4,4.4-1,4.4-1c1.2-0.2,3.3-0.4,5.5-0.3c0,0,18.8,0,18.8,0
		c4.2,0,7.5,1.2,8.9,4.5c0.1,0.3,0.6,1,0.6,2.4c0,0.6,0,15.5,0,15.5c8.1,4.2,12.1,13.2,10.8,22.4c-0.8,10.3-6.7,21.4-17,25.1
		c-5.3,2.1-10.9,1.2-16.2-2.2c-1.7,1.4-3.5,2.8-5.5,3.4c-3.3,1.6-8.2,1.2-11.4,0c-1.5-0.4-2.8-1.3-4.1-2l-1.2-0.9
		c-3.9,3.3-8.9,4.6-14,3.6c-2.3-0.5-4.1-1.3-6.2-3.3c-3.2,3.4-8.1,5.1-12.8,4c-3.5-0.9-4.4-2.4-4.7-1.8c-1.3,5-2.9,8.5-9.2,12.2
		c-6.6,4.1-15,3.7-22.8,3.9c0,0-3.5,0-4.2-0.2c-0.7-0.2-1.2-0.5-1.5-1.6c0-0.8,0-13,0-13.4c-1.4,0.1-2.3-0.1-3.4-0.3
		c-2.2-0.5-4.1-1.3-6-2.9l-0.5-0.5c-2.2,1.2-4.4,2.1-6.7,2.9c-6.5,1.5-14.2,1.7-20.7-0.2c-2.3-0.7-4.7-1.5-6.8-2.9
		c-0.9,0.5-1.6,1.2-2.5,1.6c-3.2,1.7-6.7,2.8-10.6,2.6c-4.9-0.2-9.6-1.8-13.4-4.9c-8.2,4-17.6,5.2-27.2,5.2
		c-6.7-0.3-14.7-0.8-20.2-5.3c-0.6-0.4-0.9-1.1-0.9-1.8l0.1-38.2c0.1-0.7,0.5-1.3,1.2-1.5c1.4-0.3,3.8-0.1,4.9-0.1L6,51.2
		c-4.9-9-7.4-19.8-5.2-30.6C2.5,12,7.7,3.1,16.2,0l29.9,0.1c1.1,0.3,1.4,1.5,2.2,2c2.2-0.8,4.5-1.4,7-1.5c1.7-0.3,3.7,0.1,5.3,0.2
		c1.8,0.5,3.8,0.6,5.5,1.4c1-0.8,1.6-2,2.8-2.1l21.7,0.1c0.7,0.1,1.2,0.3,1.9,0.4c3.1,1,6.1,3.4,6.7,6.8c0.2,6.3,0,12.2,0.1,18.6
		l0.2,0.1l38.4,0.1c0-0.2-0.1-13.1,0.4-20.2c0.3-1.9,1.1-3.7,3-4.9c1.5-0.8,3.3-0.9,5.2-1l19.8,0c1.4,0,2.1,0.4,3,1.1
		c1-0.7,1.7-1.2,3.8-1.1l16.4,0C193.8,0.3,197.7,1.1,199.7,4.9"/>
	<path class="st1" d="M197,7.2l0.3,2.7l0,20.4c0.1,0.7,0.3,0.9,0.9,1.3c0,0,0.7,0.4,1.3,0.1c2.9-1.3,7.6-2.3,12.1-2.2l18-0.1
		c2.6,0.1,5.6,0.6,6,4.4c0.1,3.6,0,10.9,0,16c0.2,1.2,2.8,1.4,4.3,3c6.2,4.5,7.8,12.6,6.3,19.8c-1.4,7.9-5.8,15.8-13.2,19.3
		c-0.1,0.1-0.3,0.1-0.4,0.2c-2.3,0.9-4.7,1.3-7.2,1c-7.2-1.7-5.6-3.4-8.7-3.8c-1.6,0.3-3,2.3-4.1,2.9c-2,1.4-4.4,2.3-7.1,2.3
		c-3-0.1-5.8-1.3-7.9-2.7c0,0-0.4-0.3-0.5-0.4c-0.1-0.1-1.8-2.1-3.4-1.4c-3.5,3.3-8.6,5.6-13.5,3.8c-2.2-0.9-3.4-2.1-5.2-3.8
		c-1.6-1-1.9,0.9-4.1,2.6c-2.4,1.8-5.4,3.1-8.5,2.2c-2.2-0.6-4.1-2-6-3.4c-0.9-0.3-1.6,0.3-2.1,1c-1.3,5.5-3.8,11.2-9.1,13.8
		c-4.1,2.1-10.2,3-15.6,3.1c-2.2,0.2-4.6,0-6.8-0.1c0-0.1,0.1-10.8,0-13.6c-0.2-2.3-2.6-1.5-6.2-1.8c-1.5-0.3-2.6-0.2-4.8-2.6
		c-0.7-0.6-1.3-1.6-2.4-1.3c-1.6,0.3-2.8,1.4-4.4,2.2c-5.2,2.3-11.8,2.4-12.9,2.4c-2.2-0.1-4.3-0.2-6-0.6c-3.8-0.6-7.3-2-10.5-3.9
		c-2-0.6-3.2,1.6-4.9,2.3C66.1,94.9,60.1,95,55.3,93c-2.3-0.9-4.1-2.5-6.2-3.7c-1.7-0.2-3,1.2-4.7,1.6c-4.8,2.3-10.6,3-16.1,3.6
		c-4,0.3-8.2,0.3-12.7-0.1c-5-0.6-8.3-1.2-11.6-3.5c0,0-0.3-0.1-0.3-0.5c0-0.3,0-35.5,0-35.5l6.4,0c0.6-0.1,1.2-0.7,1.3-1.5
		c0-1.5-1.9-3.8-2.6-5.2c-4.1-8-6.3-17.6-4.3-26.7C5.8,14.2,9.8,6,17.5,3.4l27.3,0.1c0.8,1,2.1,3,4,2.3c5.3-3,12.5-1.8,17.9,0.2
		C68.1,6,68.8,4.2,70,3.5l20.2,0c2.3,0.3,4.7,1.5,5.6,3.8l0.3,2L96,28c0.1,0.5,0.5,1.1,1,1.3l2.2,0.1l41.2,0
		c0.5-0.1,1.1-0.6,1.3-1.2c0.1-6.6,0.2-19.9,0.1-20.1c0.3-1.3,0.3-3.8,1.9-4.4l1.8-0.3l21.2,0c1.5,1.1,2.2,1.8,4.2,0.9
		c0,0,1.1-0.9,1.4-0.9c1.8,0,17.5,0,19.4,0.1C194.2,4,196.2,5,197,7.2"/>
	<path class="st0" d="M68,17.8c1.6,2.9,1.7,6.7,0.1,9.5C65.9,30.9,62,33,57.8,33c-3.9,0-7.6-2.3-9.5-5.7c-1.7-3.4-1.4-8.1,1.3-10.9
		c2.6-3.2,6.7-4.5,10.8-3.8C63.4,13.2,66.3,15,68,17.8"/>
	<path class="st0" d="M241.4,25.6c-2.3,0-3.7-1.5-3.7-3.9c0-2.3,1.4-3.8,3.7-3.8c2.2,0,3.7,1.5,3.7,3.8
		C245.1,24.1,243.6,25.6,241.4,25.6 M241.4,27c2.9,0,5.2-2.3,5.3-5.2c0-2.9-2.3-5.2-5.2-5.2c-2.9,0-5.2,2.3-5.3,5.2
		C236.2,24.6,238.5,27,241.4,27 M242.7,22.2c1-0.1,1.5-0.5,1.5-1.5c0-1.3-0.7-1.7-2.2-1.7l-2.7,0l0,5.5l1.2,0l0-2.2h0.9l1.3,2.2
		l1.4,0L242.7,22.2z M240.5,21.3l0-1.5l1.3,0c0.5,0,1.4-0.1,1.4,0.7c0,0.7-0.4,0.8-1.1,0.8L240.5,21.3z"/>
	<path class="st2" d="M92.4,44.4c0.7,1.1,0.9,2.4,0.8,3.8l0,19.1c-0.1,1.6-0.7,3.2-2.1,4c-0.5,0.1-1.2,0.2-1.6-0.1
		c-1.2-0.9-1.9-2.3-2-3.8V47.8c0.3-1.7,0.4-3.6,2.1-4.5C90.8,42.9,91.8,43.6,92.4,44.4 M187.2,12.5c0.3,0.1,0.6,0.3,0.8,0.5v55.4
		c-0.1,0.9,0.1,1.8,0.5,2.5c0.5,0.5,1,1.1,1.8,1.2c1.4-0.4,1.5-2.1,2-3.3c0.3-5.1,0.1-10.3,0.2-16c0.3-4.7,2.4-9,6.5-11.5
		c2.7-1.7,5.5-2.5,8.9-2.7h17.1c0.5,0,1.5-0.2,1.5,1.4l0,30.8c0,0.9,0.5,1.7,1.3,2.1c0.9,0.3,2.2,0.2,2.8-0.6c0.5-0.7,0.8-0.6,1-2.3
		c0,0,0-7.6,0-9.5c0-1.6,2.3-0.3,3.3,0.5c2.5,2.2,3,5.9,2.8,8.9c-0.6,6-3.4,12.4-9.5,14.6c-3.4,0.9-7.4,0.5-9.8-2.1
		c-0.9-0.3-1.3-1.3-1.9-1.9c-0.6-0.5-0.8-1.9-1.8-1.6c-1.6,2.9-4.6,5.3-7.9,5.8c0,0,0.5,0.2-2.8,0.2c-3.3,0-6.9-1.8-8.7-4.8
		c-0.6-0.8-0.8-1.8-1.5-2.4l-0.3,0.2c-2.2,3.4-5.8,6.5-10,6.6c-3.3,0-5.5-1.7-5.5-1.7c-3-2.4-3.4-5.1-4.1-5.1l-0.3-0.1
		c-0.6-0.2-4.3,7.1-10.7,7.2c-2.8-0.1-5.4-1.4-7.8-2.9c-2.9-2.4-5.2-5.7-5.1-9.6l0.1-59c0.1-0.5,0.5-0.7,1-0.8l14.6,0
		c0.7,0.1,0.7,0.6,0.8,1.4l0.1,53.5c0.1,1.2,0.4,2.8,1.5,3.6l1.2,0.4c0.7-0.1,1.4-0.4,1.8-1.1l0.5-1.5l0-55.7
		c0.1-0.3,0.5-0.7,0.9-0.7C176.6,12.5,183.8,12.5,187.2,12.5 M87.4,12.6c0.4,0,0.4,2.2,0.4,2.7v22c0,0.6,1.8,0.4,1.8,0.4h5.2
		c0.8,0,2,0,2.9,0.2c4.6,0.4,8.7,5,9.6,8.4c0.4,1.5,0.6,4.4,0.6,4.4v17.1c0,6-2.6,12.1-8.2,14.8c-5.4,2.7-13.2,3.5-18.6-0.1
		c-2.4-1.7-4.5-4-6.2-6.3c-1.7,2-3.3,4.3-5.4,5.8c-3.4,2.8-8.8,2.5-12.6,0.9c-5.1-2.3-6.8-7.9-7.2-13.1l-0.1-31.3
		c0-0.3,0.1-0.6,0.5-0.7h15.6c0.6,0.2,0.3,0.9,0.5,1.3l0,28.7c0.1,1.3,0.5,2.7,1.9,3.4c0.9,0.3,2.2-0.2,2.8-0.8
		c0.6-0.6,0.7-2.4,0.7-2.4l0.1-11.3l0-43.7c0,0,0-0.4,0.2-0.4C72.3,12.5,87.1,12.5,87.4,12.6 M43.4,12.5c0.1,0.1,0.5,0.4,0.1,0.6
		c-4.5,4.1-9.2,8.5-9.9,14.6c-0.3,3.4-0.4,7.4,1.4,10.5c2.2,3.8,4.7,7.4,7.3,11.1c3.5,6.1,7.3,12.9,4.9,20.4
		c-1.2,4.4-4,8.4-8.2,10.8c-7.1,4.2-15,5.1-24.2,2.8c-0.5-0.1-0.9-0.4-1.3-0.7l0-18.9c0.1-0.2,0.2-0.5,0.4-0.6
		c1.2,0.1,1.7,1.8,2.8,2.6c2.4,2.4,6.4,3.6,9.5,1.9c1.3-0.9,2.2-2.1,2.3-3.8c0.1-2.2-1.2-3.9-2-5.7c-3.8-7.1-8.3-12.6-11.1-21.2
		c-2.1-7.7-0.2-15.2,3.6-21.2c0,0,1.8-3.2,2.7-3.2H43.4z M146.5,38.6c0,0.3,0.1,46.9,0.1,46.9c0,4.5-1.9,11.1-7.6,13.7
		c-2.1,1-4.3,0.8-6.7,0.8l-0.5-0.3c-0.2-5.7-0.1-14.1-0.1-18.8c-0.1-0.3-0.3-0.7-0.7-0.5c-2.7,1.4-5.2,3.1-8.4,3.3
		c-2.5-0.2-5-0.4-6.8-2.1c-0.6-0.6-1.3-0.9-1.8-1.6c-1.8-2-2.8-4.4-3-7l0-34.1c0.1-0.5,0.2-0.9,0.7-0.8h14.3
		c0.4,0.1,0.5,0.6,0.6,0.9l-0.1,27.8c0.1,1.2,0.5,3.3,1.7,4.1c0.7,0.3,1.4,0.3,2.2-0.1c1-0.7,1.2-2.8,1.4-3.8l0-28.3
		c0-0.5,0.3-0.7,0.8-0.6c4.2,0,8.9,0,13.6,0C146,38.1,146.5,38.3,146.5,38.6 M211.5,47.9c0.3,0.7,0.4,2.7,0.4,2.7v17.2
		c-0.1,2.2-1.1,3.1-2.1,3.8c-0.5,0.4-1.3,0.3-1.8,0c-1.2-0.8-1.7-2.3-1.7-3.7l0-17.2c0-2.2,0.9-4.6,2.6-4.9
		C210.6,46,211.2,47.2,211.5,47.9"/>
</g>
</svg>
